# File created by Blade
# Date/Time:  Tue Jan 27 19:14:06 2015
# Frame Rate: 120.000 fps
#------------------------------------------------------
:FULLY-SPECIFIED
:DEGREES
3943
root 3.566968 32.463254 0.624485 -5.140666 2.736223 0.859220
Spine -0.245661 2.369856 -1.846761
Head 12.003426 -20.090882 -5.433956
LeftShoulder -7.681704 -6.048665 22.432632
LeftArm -7.156139 35.443839 -103.865076
LeftForeArm 4.182623 -0.000000 11.745120
LeftHand 9.723498 0.000000 -5.133566
LeftHandThumb1 -26.253704 0.000000 33.147579
RightShoulder -14.704800 4.044034 -58.985305
RightArm 26.046852 25.860497 10.223120
RightForeArm 10.784161 -0.000000 91.546147
RightHand 29.269139 -0.000000 -11.603476
RightHandThumb1 -24.326973 -0.000000 -32.862282
LeftUpLeg 10.884129 -1.659768 -0.222124
LeftLeg 2.305783 -0.000000 -0.000000
LeftFoot -15.141506 9.860311 -22.574606
LeftToeBase 18.606930 -0.000000 -0.000000
RightUpLeg 10.264711 -0.609219 4.017568
RightLeg 0.959838 -0.000000 -0.000000
RightFoot -12.127891 -15.484855 13.348281
RightToeBase 12.179889 -0.000000 -0.000000
3944
root 3.568144 32.463291 0.616540 -5.124256 2.739326 0.863798
Spine -0.209898 2.377118 -1.841116
Head 11.894728 -20.082258 -5.375109
LeftShoulder -7.649200 -6.087781 22.447248
LeftArm -7.142926 35.525949 -103.901844
LeftForeArm 4.249740 -0.000000 11.723807
LeftHand 9.661689 -0.000000 -4.588966
LeftHandThumb1 -26.253704 0.000000 33.147579
RightShoulder -14.722972 3.998398 -58.921342
RightArm 26.037092 25.713081 10.248047
RightForeArm 10.908678 -0.000000 91.482884
RightHand 29.243282 -0.000000 -11.525051
RightHandThumb1 -24.326973 -0.000000 -32.862282
LeftUpLeg 10.854290 -1.667182 -0.229414
LeftLeg 2.302721 -0.000000 -0.000000
LeftFoot -15.143127 9.863701 -22.589127
LeftToeBase 18.617355 -0.000000 -0.000000
RightUpLeg 10.251139 -0.589526 4.011966
RightLeg 0.927639 -0.000000 -0.000000
RightFoot -12.115484 -15.500610 13.366142
RightToeBase 12.214472 -0.000000 -0.000000
3945
root 3.569074 32.463597 0.608926 -5.110067 2.742503 0.865558
Spine -0.176642 2.364302 -1.823897
Head 11.811630 -20.059071 -5.336624
LeftShoulder -7.631348 -6.112572 22.463363
LeftArm -7.099133 35.498882 -103.896073
LeftForeArm 4.361926 0.000000 11.685256
LeftHand 9.749210 -0.000000 -5.521088
LeftHandThumb1 -26.253704 0.000000 33.147579
RightShoulder -14.717358 3.947208 -58.869044
RightArm 26.003836 25.616010 10.274896
RightForeArm 11.003202 0.000000 91.427612
RightHand 29.209778 0.000000 -11.515305
RightHandThumb1 -24.326973 -0.000000 -32.862282
LeftUpLeg 10.829898 -1.657755 -0.230736
LeftLeg 2.293848 -0.000000 -0.000000
LeftFoot -15.121075 9.852764 -22.596493
LeftToeBase 18.567819 -0.000000 -0.000000
RightUpLeg 10.239015 -0.556770 4.013523
RightLeg 0.898454 -0.000000 -0.000000
RightFoot -12.115837 -15.521941 13.399102
RightToeBase 12.294310 -0.000000 -0.000000
3946
root 3.569400 32.464192 0.599673 -5.081552 2.759543 0.866990
Spine -0.150018 2.337487 -1.809666
Head 11.723103 -20.037924 -5.283023
LeftShoulder -7.610471 -6.154657 22.473875
LeftArm -7.093026 35.525719 -103.917505
LeftForeArm 4.411487 -0.000000 11.668488
LeftHand 9.793795 0.000000 -5.753249
LeftHandThumb1 -26.253704 0.000000 33.147579
RightShoulder -14.738568 3.962571 -58.841192
RightArm 25.972376 25.500244 10.343159
RightForeArm 11.178611 0.000000 91.382728
RightHand 29.158006 -0.000000 -11.296603
RightHandThumb1 -24.326973 -0.000000 -32.862282
LeftUpLeg 10.784694 -1.689502 -0.236590
LeftLeg 2.287636 -0.000000 -0.000000
LeftFoot -15.111267 9.876844 -22.583958
LeftToeBase 18.586650 -0.000000 -0.000000
RightUpLeg 10.207468 -0.571309 4.010134
RightLeg 0.874056 -0.000000 -0.000000
RightFoot -12.071442 -15.534096 13.351567
RightToeBase 12.172046 -0.000000 -0.000000
3947
root 3.571224 32.465064 0.592794 -5.069888 2.779835 0.873420
Spine -0.113964 2.312528 -1.784306
Head 11.669410 -20.001836 -5.268830
LeftShoulder -7.581773 -6.169439 22.463347
LeftArm -7.063270 35.536224 -103.915991
LeftForeArm 4.474492 -0.000000 11.660089
LeftHand 9.815233 -0.000000 -5.871111
LeftHandThumb1 -26.253704 0.000000 33.147579
RightShoulder -14.746173 3.999401 -58.832122
RightArm 25.912105 25.359319 10.370666
RightForeArm 11.445420 -0.000000 91.326310
RightHand 29.162012 -0.000000 -11.388095
RightHandThumb1 -24.326973 -0.000000 -32.862282
LeftUpLeg 10.756071 -1.691832 -0.244613
LeftLeg 2.288616 -0.000000 -0.000000
LeftFoot -15.086318 9.865970 -22.583960
LeftToeBase 18.579098 -0.000000 -0.000000
RightUpLeg 10.205169 -0.547308 4.004416
RightLeg 0.834670 -0.000000 -0.000000
RightFoot -12.057522 -15.569630 13.370874
RightToeBase 12.243132 -0.000000 -0.000000
3948
root 3.574391 32.465886 0.586210 -5.052638 2.796056 0.882054
Spine -0.083125 2.283990 -1.765041
Head 11.612930 -19.970959 -5.235553
LeftShoulder -7.559969 -6.230570 22.472937
LeftArm -7.104975 35.540479 -103.964059
LeftForeArm 4.502903 -0.000000 11.658610
LeftHand 9.808219 -0.000000 -5.882533
LeftHandThumb1 -26.253704 0.000000 33.147579
RightShoulder -14.765440 4.057646 -58.823926
RightArm 25.857054 25.240098 10.415836
RightForeArm 11.589292 -0.000000 91.284818
RightHand 29.142482 -0.000000 -11.515904
RightHandThumb1 -24.326973 -0.000000 -32.862282
LeftUpLeg 10.728445 -1.724065 -0.262981
LeftLeg 2.283246 -0.000000 -0.000000
LeftFoot -15.076659 9.897676 -22.567469
LeftToeBase 18.614007 -0.000000 -0.000000
RightUpLeg 10.196746 -0.538646 3.992200
RightLeg 0.798715 -0.000000 -0.000000
RightFoot -12.047677 -15.588072 13.385037
RightToeBase 12.196752 -0.000000 -0.000000
3949
root 3.576977 32.467201 0.580517 -5.031649 2.815980 0.885011
Spine -0.061612 2.206410 -1.729803
Head 11.567646 -19.908338 -5.233373
LeftShoulder -7.595323 -6.212332 22.463100
LeftArm -7.068848 35.585321 -103.956273
LeftForeArm 4.643466 -0.000000 11.639017
LeftHand 9.849613 -0.000000 -5.754547
LeftHandThumb1 -26.253704 0.000000 33.147579
RightShoulder -14.759616 4.134914 -58.812040
RightArm 25.799111 25.179780 10.436459
RightForeArm 11.785132 -0.000000 91.259660
RightHand 29.103015 0.000000 -11.460826
RightHandThumb1 -24.326973 -0.000000 -32.862282
LeftUpLeg 10.693250 -1.727855 -0.268047
LeftLeg 2.283991 -0.000000 -0.000000
LeftFoot -15.054608 9.883672 -22.567493
LeftToeBase 18.614744 -0.000000 -0.000000
RightUpLeg 10.186619 -0.529239 3.987972
RightLeg 0.758687 -0.000000 -0.000000
RightFoot -12.029383 -15.619384 13.407264
RightToeBase 12.227943 -0.000000 -0.000000
3950
root 3.580023 32.467785 0.575046 -5.019501 2.838877 0.894281
Spine -0.030115 2.162091 -1.699498
Head 11.539365 -19.847048 -5.224663
LeftShoulder -7.579271 -6.275337 22.467649
LeftArm -7.132445 35.638468 -104.010158
LeftForeArm 4.709566 -0.000000 11.656422
LeftHand 9.824906 -0.000000 -5.468421
LeftHandThumb1 -26.253704 0.000000 33.147579
RightShoulder -14.775225 4.127842 -58.802629
RightArm 25.753968 25.188792 10.470874
RightForeArm 11.958802 -0.000000 91.227104
RightHand 29.141883 -0.000000 -11.373163
RightHandThumb1 -24.326973 -0.000000 -32.862282
LeftUpLeg 10.674851 -1.758508 -0.284856
LeftLeg 2.271217 -0.000000 -0.000000
LeftFoot -15.033526 9.891376 -22.564196
LeftToeBase 18.639562 -0.000000 -0.000000
RightUpLeg 10.185693 -0.511778 3.978278
RightLeg 0.723089 -0.000000 -0.000000
RightFoot -12.019366 -15.657987 13.413749
RightToeBase 12.234384 -0.000000 -0.000000
3951
root 3.583570 32.468446 0.569870 -5.007877 2.857391 0.907800
Spine -0.001827 2.126923 -1.670452
Head 11.530276 -19.777129 -5.211655
LeftShoulder -7.558317 -6.306962 22.471892
LeftArm -7.155125 35.716580 -104.050791
LeftForeArm 4.721083 -0.000000 11.662186
LeftHand 9.709388 -0.000000 -5.227764
LeftHandThumb1 -26.253704 0.000000 33.147579
RightShoulder -14.786822 4.071689 -58.777309
RightArm 25.710042 25.259708 10.474610
RightForeArm 12.035724 -0.000000 91.195622
RightHand 29.212283 -0.000000 -11.381072
RightHandThumb1 -24.326973 -0.000000 -32.862282
LeftUpLeg 10.655674 -1.766687 -0.304307
LeftLeg 2.262956 -0.000000 -0.000000
LeftFoot -15.012605 9.892855 -22.566125
LeftToeBase 18.638456 -0.000000 -0.000000
RightUpLeg 10.178790 -0.500562 3.961319
RightLeg 0.700115 -0.000000 -0.000000
RightFoot -12.016585 -15.683462 13.415550
RightToeBase 12.212452 -0.000000 -0.000000
